<svg height="496pt" viewBox="0 0 496 496" width="496pt" xmlns="http://www.w3.org/2000/svg" xmlns:xlink="http://www.w3.org/1999/xlink"><linearGradient id="linear0" gradientUnits="userSpaceOnUse" x1="248" x2="248" y1="496" y2="0"><stop offset="0" stop-color="#9f2fff"/><stop offset="1" stop-color="#0bb1d3"/></linearGradient><path d="m459.71875 239.664062c-9.6875 0-18.796875 3.777344-25.65625 10.632813l-34.0625 34.0625v-284.359375h-315.3125l-84.6875 84.6875v411.3125h400v-109.015625l85.375-85.375c6.847656-6.847656 10.625-15.960937 10.625-25.65625 0-20.007813-16.273438-36.289063-36.28125-36.289063zm-159.742188 175.289063 20.808594 20.816406-29.136718 8.496094zm36.023438 13.390625-8.6875-8.679688 114.222656-114.222656 8.6875 8.6875zm-20-19.992188-8.6875-8.6875 114.222656-114.222656 8.6875 8.6875zm-236-381.039062v52.6875h-52.6875zm304 452.6875h-368v-384h80v-80h288v284.359375l-95.128906 95.121094-20.519532 72.253906 71.855469-20.957031 43.792969-43.792969zm90.0625-189.703125-12.519531 12.511719-28.6875-28.6875 12.519531-12.511719c3.832031-3.832031 8.929688-5.945313 14.34375-5.945313 11.175781 0 20.28125 9.105469 20.28125 20.289063 0 5.421875-2.113281 10.519531-5.9375 14.34375zm-311.984375 40.320313-34.4375 37.871093c-10.144531-10.175781-24.160156-16.488281-39.640625-16.488281-30.871094 0-56 25.128906-56 56s25.128906 56 56 56 56-25.128906 56-56c0-9.535156-2.414062-18.527344-6.640625-26.398438l36.5625-40.21875zm-34.078125 77.382812c0 22.054688-17.945312 40-40 40s-40-17.945312-40-40 17.945312-40 40-40c11.335938 0 21.535156 4.792969 28.816406 12.398438l-30.113281 33.128906-18.269531-12.175782-8.875 13.3125 29.730468 19.824219 36.230469-39.863281c1.511719 4.199219 2.480469 8.65625 2.480469 13.375zm-.359375-183.503906c-10.144531-10.183594-24.160156-16.496094-39.640625-16.496094-30.871094 0-56 25.128906-56 56s25.128906 56 56 56 56-25.128906 56-56c0-9.535156-2.414062-18.527344-6.640625-26.398438l36.5625-40.21875-11.84375-10.765624zm.359375 39.503906c0 22.054688-17.945312 40-40 40s-40-17.945312-40-40 17.945312-40 40-40c11.335938 0 21.535156 4.792969 28.816406 12.398438l-30.113281 33.128906-18.269531-12.175782-8.875 13.3125 29.730468 19.824219 36.230469-39.863281c1.511719 4.199219 2.480469 8.65625 2.480469 13.375zm224-8h16v16h-16zm-16 0v16h-160v-16zm-160-32h192v16h-192zm0 64h192v16h-192zm0 112h88v16h-88zm0 32h88v16h-88zm0-64h88v16h-88zm-24-192h176c22.054688 0 40-17.945312 40-40v-64c0-22.054688-17.945312-40-40-40h-176c-22.054688 0-40 17.945312-40 40v64c0 22.054688 17.945312 40 40 40zm-24-104c0-13.230469 10.769531-24 24-24h176c13.230469 0 24 10.769531 24 24v64c0 13.230469-10.769531 24-24 24h-176c-13.230469 0-24-10.769531-24-24zm208 8h-48v48h48zm-16 32h-16v-16h16zm-56-32h-48v48h48zm-16 32h-16v-16h16zm-56-32h-48v48h48zm-16 32h-16v-16h16zm0 0" fill="url(#linear0)"/></svg>