<?xml version="1.0" standalone="no"?>
<!DOCTYPE svg PUBLIC "-//W3C//DTD SVG 20010904//EN"
 "http://www.w3.org/TR/2001/REC-SVG-20010904/DTD/svg10.dtd">
<svg version="1.0" xmlns="http://www.w3.org/2000/svg"
 width="260.000000pt" height="260.000000pt" viewBox="0 0 260.000000 260.000000"
 preserveAspectRatio="xMidYMid meet">
<metadata>
Created by potrace 1.11, written by Peter Selinger 2001-2013
</metadata>
<g transform="translate(0.000000,260.000000) scale(0.100000,-0.100000)"
fill="#000000" stroke="none">
<path d="M985 2330 c-82 -27 -162 -52 -177 -55 -36 -8 -41 -19 -29 -58 25 -81
144 -453 148 -464 4 -9 -5 -13 -26 -13 l-30 0 -3 87 -3 88 -34 2 c-19 2 -42 9
-50 17 -41 36 -83 30 -101 -15 -10 -24 -10 -33 4 -54 20 -31 80 -36 95 -7 5
10 19 18 30 19 21 2 21 1 21 -393 l0 -394 92 0 91 0 -21 -23 c-30 -32 -29 -81
3 -112 28 -29 56 -31 96 -8 36 21 45 61 25 102 -9 16 -16 32 -16 35 0 2 85 4
190 4 l189 -1 -19 -25 c-27 -34 -25 -74 5 -106 27 -29 53 -33 94 -11 46 23 55
74 22 117 l-20 24 72 2 c39 1 75 6 80 11 28 28 -12 31 -424 31 l-419 0 0 49 0
49 473 0 472 1 1 255 1 255 -40 3 -41 3 1 83 2 82 -99 0 c-86 0 -99 2 -102 18
-3 15 -16 17 -112 17 l-108 0 -40 130 c-93 301 -92 300 -119 302 -13 1 -91
-20 -174 -47z"/>
<path d="M1425 824 c-65 -49 -75 -58 -75 -71 0 -27 28 -24 84 8 53 29 56 33
43 52 -18 27 -28 29 -52 11z"/>
<path d="M236 677 c-2 -10 4 -27 15 -38 17 -17 19 -34 19 -168 0 -133 -2 -150
-17 -153 -10 -2 -18 -13 -18 -28 l-2 -26 141 1 140 0 13 45 c18 60 13 82 -18
91 -24 6 -28 3 -38 -32 -12 -40 -37 -55 -78 -47 -16 3 -18 16 -18 158 0 142 1
155 18 152 9 -2 18 2 18 8 2 13 2 38 0 48 0 4 -39 7 -85 7 -74 0 -86 -2 -90
-18z"/>
<path d="M590 692 c-19 -7 -11 -54 10 -59 18 -5 19 -14 18 -158 -1 -85 -4
-154 -7 -153 -23 2 -31 -6 -31 -30 l0 -27 89 0 c75 0 91 2 94 16 6 21 -2 33
-26 42 -15 6 -17 21 -15 159 3 128 5 153 18 153 18 0 30 25 20 43 -5 10 -31
14 -83 15 -43 1 -82 1 -87 -1z"/>
<path d="M859 692 c-30 -2 -38 -8 -41 -27 -4 -16 1 -26 14 -32 18 -8 19 -21
20 -158 0 -126 -2 -150 -15 -153 -19 -4 -28 -38 -13 -50 16 -13 196 -7 242 8
79 25 125 95 130 199 4 89 -37 166 -104 193 -30 12 -177 25 -233 20z m156 -64
c45 -20 69 -73 69 -152 1 -79 -19 -126 -61 -145 -36 -16 -63 -14 -64 7 -1 20
-1 271 0 290 1 15 22 15 56 0z"/>
<path d="M1250 662 c0 -18 4 -31 9 -27 19 11 23 -18 23 -148 -1 -174 0 -167
-17 -167 -10 0 -15 -10 -15 -28 l0 -28 140 1 c76 0 141 3 144 5 2 3 7 22 10
42 3 21 6 41 7 45 4 22 -4 29 -30 31 -25 2 -30 -2 -36 -28 -4 -16 -10 -31 -13
-31 -34 -6 -78 -5 -82 1 -3 4 -3 35 -2 68 4 59 4 60 30 58 19 -2 28 -10 30
-25 3 -17 10 -21 33 -19 l29 2 0 68 c0 67 -1 68 -26 68 -17 0 -28 -6 -31 -20
-7 -27 -63 -29 -64 -2 -1 22 2 107 4 108 1 1 18 -1 38 -3 31 -4 38 -9 43 -35
5 -25 10 -29 33 -26 27 3 28 5 29 60 l1 57 -144 3 -143 3 0 -33z"/>
<path d="M1780 693 c-92 -33 -143 -86 -165 -171 -46 -177 79 -297 263 -253 51
13 53 14 50 45 -2 21 -8 30 -18 28 -8 -2 -38 -6 -66 -9 -46 -5 -54 -3 -83 23
-28 25 -32 37 -38 95 -9 107 36 185 104 177 19 -2 27 -10 30 -28 6 -43 12 -50
43 -50 l31 0 -2 66 c-2 51 -6 67 -20 75 -19 9 -103 11 -129 2z"/>
<path d="M2118 689 c-122 -34 -181 -212 -113 -338 34 -63 86 -91 165 -91 133
0 214 99 205 250 -4 67 -38 134 -81 161 -40 24 -122 33 -176 18z m118 -83 c22
-35 33 -155 18 -211 -14 -58 -34 -78 -74 -78 -62 0 -94 72 -85 192 5 74 22
111 60 127 34 14 57 6 81 -30z"/>
</g>
</svg>
