<?xml version="1.0" encoding="utf-8"?>
<!-- Generator: Adobe Illustrator 21.0.2, SVG Export Plug-In . SVG Version: 6.00 Build 0)  -->
<svg version="1.1" id="Capa_1" xmlns="http://www.w3.org/2000/svg" xmlns:xlink="http://www.w3.org/1999/xlink" x="0px" y="0px"
	 viewBox="0 0 260 260" style="enable-background:new 0 0 260 260;" xml:space="preserve">
<style type="text/css">
	.st0{display:none;fill:#FFFFFF;}
	.st1{fill:#27469B;}
	.st2{font-family:'ChaparralPro-Bold';}
	.st3{font-size:65.9287px;}
	.st4{fill:#C7CFE2;}
	.st5{fill:#707487;}
	.st6{fill:#5B5D6E;}
	.st7{fill:#FF6464;}
	.st8{fill:#8F96AC;}
	.st9{fill:#D7DEED;}
	.st10{fill:#D1D4D1;}
	.st11{fill:#556080;}
	.st12{fill:#434F6D;}
	.st13{fill:#D8625E;}
	.st14{fill:#B75030;}
	.st15{fill:#0E2D5E;}
	.st16{fill:#257244;}
</style>
<rect class="st0" width="260" height="260"/>
<g>
	<text transform="matrix(0.9354 0 0 1 20.0133 233.4994)" class="st1 st2 st3">LIDÉCO</text>
	<g>
		<g>
			<path class="st4" d="M134.2,80L96.6,91.8c-1,0.4-2.2-0.4-2.4-1.4L76.9,36.1c-0.4-1.2,0-2.4,1-2.6l37.6-11.8
				c1-0.4,2.2,0.4,2.4,1.4L135,77.5C135.6,78.7,135.2,79.8,134.2,80z"/>
			<path class="st5" d="M123.8,41.2l-41.2,13l-5.7-18.1c-0.4-1.2,0-2.4,1-2.6l37.6-11.8c1-0.4,2.2,0.4,2.4,1.4L123.8,41.2
				L123.8,41.2z"/>
			<g>
				<path class="st6" d="M93.9,61.7l-3.5,1.2c-0.6,0.2-1-0.2-1.2-0.8l-1.2-3.9c-0.2-0.6,0-1.2,0.6-1.4l3.5-1.2
					c0.6-0.2,1,0.2,1.2,0.8l1.2,3.9C94.6,61.1,94.2,61.5,93.9,61.7z"/>
				<path class="st6" d="M99,77.9L95.4,79c-0.6,0.2-1-0.2-1.2-0.8l-1.2-3.9c-0.2-0.6,0-1.2,0.6-1.4l3.5-1.2c0.6-0.2,1,0.2,1.2,0.8
					l1.2,3.9C99.8,77.1,99.4,77.7,99,77.9z"/>
				<path class="st6" d="M96.4,69.8L92.9,71c-0.6,0.2-1-0.2-1.2-0.8l-1.2-3.9c-0.2-0.6,0-1.2,0.6-1.4l3.5-1.2c0.6-0.2,1,0.2,1.2,0.8
					l1.2,3.9C97.2,69,96.8,69.6,96.4,69.8z"/>
			</g>
			<path class="st7" d="M101.5,85.9L98,87.1c-0.6,0.2-1-0.2-1.2-0.8l-1.2-3.9c-0.2-0.6,0-1.2,0.6-1.4l3.5-1.2c0.6-0.2,1,0.2,1.2,0.8
				l1.2,3.9C102.1,85.2,101.9,85.7,101.5,85.9z"/>
			<g>
				<path class="st8" d="M100.9,59.6l-3.5,1.2c-0.6,0.2-1-0.2-1.2-0.8L95,56c-0.2-0.6,0-1.2,0.6-1.4l3.5-1.2c0.6-0.2,1,0.2,1.2,0.8
					l1.2,3.9C101.7,58.8,101.5,59.4,100.9,59.6z"/>
				<path class="st8" d="M106.1,75.7l-3.5,1c-0.6,0.2-1-0.2-1.2-0.8l-1.2-3.9c-0.2-0.6,0-1.2,0.6-1.4l3.5-1.2c0.6-0.2,1,0.2,1.2,0.8
					l1.2,3.9C106.8,74.9,106.7,75.5,106.1,75.7z"/>
				<path class="st8" d="M103.5,67.6l-3.5,1.2c-0.6,0.2-1-0.2-1.2-0.8l-1.2-3.9c-0.2-0.6,0-1.2,0.6-1.4l3.5-1.2
					c0.6-0.2,1,0.2,1.2,0.8l1.2,3.9C104.3,66.8,104.1,67.4,103.5,67.6z"/>
				<path class="st8" d="M108.6,83.8l-3.5,1.2c-0.6,0.2-1-0.2-1.2-0.8l-1.2-3.9c-0.2-0.6,0-1.2,0.6-1.4l3.5-1.2
					c0.6-0.2,1,0.2,1.2,0.8l1.2,3.9C109.4,83,109.2,83.6,108.6,83.8z"/>
				<path class="st8" d="M108.2,57.2l-3.5,1.2c-0.6,0.2-1-0.2-1.2-0.8l-1.2-3.9c-0.2-0.6,0-1.2,0.6-1.4l3.5-1.2
					c0.6-0.2,1,0.2,1.2,0.8l1.2,3.9C109,56.4,108.6,57,108.2,57.2z"/>
				<path class="st8" d="M113.3,73.3l-3.5,1.2c-0.6,0.2-1-0.2-1.2-0.8l-1.2-3.9c-0.2-0.6,0-1.2,0.6-1.4l3.5-1.2
					c0.6-0.2,1,0.2,1.2,0.8l1.2,3.9C113.9,72.5,113.7,73.1,113.3,73.3z"/>
				<path class="st8" d="M110.8,65.3l-3.5,1.2c-0.6,0.2-1-0.2-1.2-0.8l-1.2-3.9c-0.2-0.6,0-1.2,0.6-1.4l3.5-1.2
					c0.6-0.2,1,0.2,1.2,0.8l1.2,3.9C111.6,64.5,111.2,65.1,110.8,65.3z"/>
				<path class="st8" d="M115.9,81.4l-3.7,1.2c-0.6,0.2-1-0.2-1.2-0.8l-1.2-3.9c-0.2-0.6,0-1.2,0.6-1.4l3.5-1.2
					c0.6-0.2,1,0.2,1.2,0.8l1.2,3.9C116.5,80.6,116.3,81.2,115.9,81.4z"/>
				<path class="st8" d="M115.3,55l-3.5,1.2c-0.6,0.2-1-0.2-1.2-0.8l-1.2-3.9c-0.2-0.6,0-1.2,0.6-1.4l3.5-1.2c0.6-0.2,1,0.2,1.2,0.8
					l1.2,3.9C116.1,54.2,115.9,54.8,115.3,55z"/>
				<path class="st8" d="M120.4,71.2l-3.5,1.2c-0.6,0.2-1-0.2-1.2-0.8l-1.2-3.9c-0.2-0.6,0-1.2,0.6-1.4l3.5-1.2
					c0.6-0.2,1,0.2,1.2,0.8l1.2,3.9C121.2,70.4,121,71,120.4,71.2z"/>
				<path class="st8" d="M117.9,63.1l-3.5,1.2c-0.6,0.2-1-0.2-1.2-0.8l-1.2-3.9c-0.2-0.6,0-1.2,0.6-1.4l3.5-1.2
					c0.6-0.2,1,0.2,1.2,0.8l1.2,3.9C118.7,62.3,118.5,62.9,117.9,63.1z"/>
			</g>
			<g>
				<path class="st6" d="M123,79l-3.5,1.2c-0.6,0.2-1-0.2-1.2-0.8l-1.2-3.9c-0.2-0.6,0-1.2,0.6-1.4l3.5-1.2c0.6-0.2,1,0.2,1.2,0.8
					l1.2,3.9C123.8,78.5,123.6,79,123,79z"/>
				<path class="st6" d="M122.6,52.7l-3.5,1.2c-0.6,0.2-1-0.2-1.2-0.8l-1.2-3.9c-0.2-0.6,0-1.2,0.6-1.4l3.5-1.2
					c0.6-0.2,1,0.2,1.2,0.8l1.2,3.9C123.4,51.9,123,52.5,122.6,52.7z"/>
				<path class="st6" d="M125.2,60.7l-3.5,1.2c-0.6,0.2-1-0.2-1.2-0.8l-1.2-3.9c-0.2-0.6,0-1.2,0.6-1.4l3.5-1.2
					c0.6-0.2,1,0.2,1.2,0.8l1.2,3.9C125.8,59.9,125.6,60.5,125.2,60.7z"/>
				<path class="st6" d="M130.1,76.9l-3.5,1.2c-0.6,0.2-1-0.2-1.2-0.8l-3.7-12c-0.2-0.6,0-1.2,0.6-1.4l3.5-1.2
					c0.6-0.2,1,0.2,1.2,0.8l3.7,12C130.9,76.1,130.7,76.7,130.1,76.9z"/>
			</g>
			<path class="st9" d="M117.5,36.5L85.2,46.8c-0.6,0.2-1-0.2-1.2-0.8l-2.6-7.9c-0.2-0.6,0-1.2,0.6-1.4l32.3-10.2
				c0.6-0.2,1,0.2,1.2,0.8l2.6,8.1C118.3,35.9,117.9,36.5,117.5,36.5z"/>
			<g>
				<path class="st4" d="M88.1,43.6l-1.8,0.6c-0.6,0.2-1-0.2-1.2-0.8L84,39.5c-0.2-0.6,0-1.2,0.6-1.4l1.8-0.6c0.6-0.2,1,0.2,1.2,0.8
					l1.2,3.9C88.9,42.8,88.5,43.4,88.1,43.6z"/>
				<path class="st4" d="M93.5,42l-1.8,0.6c-0.6,0.2-1-0.2-1.2-0.8l-1.2-3.9c-0.2-0.6,0-1.2,0.6-1.4l1.8-0.6c0.6-0.2,1,0.2,1.2,0.8
					l1.2,3.9C94.2,41.2,94,41.8,93.5,42z"/>
				<path class="st4" d="M98.8,40.3L97,40.8c-0.6,0.2-1-0.2-1.2-0.8l-1.2-3.9c-0.2-0.6,0-1.2,0.6-1.4l1.8-0.6c0.6-0.2,1,0.2,1.2,0.8
					l1.2,3.9C99.6,39.5,99.4,40.1,98.8,40.3z"/>
				<path class="st4" d="M104.3,38.5l-1.8,0.6c-0.6,0.2-1-0.2-1.2-0.8l-1.2-3.9c-0.2-0.6,0-1.2,0.6-1.4l1.6-0.4
					c0.6-0.2,1,0.2,1.2,0.8l1.2,3.9C105.1,37.9,104.7,38.3,104.3,38.5z"/>
			</g>
			<g>
				<path class="st8" d="M109.6,36.9l-1.8,0.6c-0.6,0.2-1-0.2-1.2-0.8l-1.2-3.9c-0.2-0.6,0-1.2,0.6-1.4l1.8-0.6
					c0.6-0.2,1,0.2,1.2,0.8l1.2,3.9C110.4,36.1,110.2,36.7,109.6,36.9z"/>
				<path class="st8" d="M114.9,35.1l-1.8,0.6c-0.6,0.2-1-0.2-1.2-0.8l-1.2-3.9c-0.2-0.6,0-1.2,0.6-1.4l1.8-0.6
					c0.6-0.2,1,0.2,1.2,0.8l1.2,3.9C115.7,34.3,115.5,34.9,114.9,35.1z"/>
			</g>
			
				<rect x="81" y="44.4" transform="matrix(0.9535 -0.3013 0.3013 0.9535 -9.0742 33.0823)" class="st6" width="43.3" height="3.2"/>
		</g>
		<g>
			<g>
				<rect x="84.6" y="87.9" class="st10" width="94.5" height="47.3"/>
				<path class="st11" d="M181.1,137.1H82.6V85.9h98.5V137.1z M86.6,133.2h90.6V89.9H86.6C86.6,89.9,86.6,133.2,86.6,133.2z"/>
			</g>
			<path class="st11" d="M84.6,72.2h-9.8c-1.2,0-2-0.8-2-2c0-1.2,0.8-2,2-2h9.8c1.2,0,2,0.8,2,2C86.6,71.4,85.8,72.2,84.6,72.2z"/>
			<path class="st11" d="M84.6,89.9c-1.2,0-2-0.8-2-2V70.2c0-1.2,0.8-2,2-2s2,0.8,2,2v17.7C86.6,89.1,85.8,89.9,84.6,89.9z"/>
			<path class="st11" d="M84.6,150.9c-1.2,0-2-0.8-2-2v-13.8c0-1.2,0.8-2,2-2s2,0.8,2,2v13.8C86.6,150.1,85.8,150.9,84.6,150.9z"/>
			<circle class="st12" cx="104.3" cy="158.8" r="7.9"/>
			<circle class="st12" cx="151.5" cy="158.8" r="7.9"/>
			<path class="st11" d="M169.3,150.9H84.6c-1.2,0-2-0.8-2-2c0-1.2,0.8-2,2-2h84.7c1.2,0,2,0.8,2,2
				C171.2,150.1,170.4,150.9,169.3,150.9z"/>
			<path class="st13" d="M179.1,105.6H84.6c-1.2,0-2-0.8-2-2c0-1.2,0.8-2,2-2h94.5c1.2,0,2,0.8,2,2
				C181.1,104.8,180.3,105.6,179.1,105.6z"/>
			<path class="st11" d="M179.1,121.4H84.6c-1.2,0-2-0.8-2-2s0.8-2,2-2h94.5c1.2,0,2,0.8,2,2S180.3,121.4,179.1,121.4z"/>
			<path class="st11" d="M100.4,137.1c-1.2,0-2-0.8-2-2V87.9c0-1.2,0.8-2,2-2s2,0.8,2,2v47.3C102.3,136.3,101.5,137.1,100.4,137.1z"
				/>
			<path class="st11" d="M116.1,137.1c-1.2,0-2-0.8-2-2V87.9c0-1.2,0.8-2,2-2s2,0.8,2,2v47.3C118.1,136.3,117.3,137.1,116.1,137.1z"
				/>
			<path class="st11" d="M131.9,137.1c-1.2,0-2-0.8-2-2V87.9c0-1.2,0.8-2,2-2c1.2,0,2,0.8,2,2v47.3
				C133.8,136.3,133,137.1,131.9,137.1z"/>
			<path class="st11" d="M147.6,137.1c-1.2,0-2-0.8-2-2V87.9c0-1.2,0.8-2,2-2c1.2,0,2,0.8,2,2v47.3
				C149.6,136.3,148.8,137.1,147.6,137.1z"/>
			<path class="st11" d="M163.4,137.1c-1.2,0-2-0.8-2-2V87.9c0-1.2,0.8-2,2-2c1.2,0,2,0.8,2,2v47.3
				C165.3,136.3,164.5,137.1,163.4,137.1z"/>
			<circle class="st1" cx="72.8" cy="70.2" r="5.9"/>
			<rect x="106.3" y="70.2" class="st14" width="27.6" height="15.8"/>
			<rect x="122" y="65.5" class="st15" width="31.5" height="20.5"/>
			<rect x="153.5" y="69" class="st16" width="19.7" height="16.9"/>
		</g>
	</g>
</g>
</svg>
