<?xml version="1.0" encoding="utf-8"?>
<!-- Generator: Adobe Illustrator 21.0.2, SVG Export Plug-In . SVG Version: 6.00 Build 0)  -->
<svg version="1.1" id="Capa_1" xmlns="http://www.w3.org/2000/svg" xmlns:xlink="http://www.w3.org/1999/xlink" x="0px" y="0px"
	 viewBox="0 0 114.6 119.3" style="enable-background:new 0 0 114.6 119.3;" xml:space="preserve">
<style type="text/css">
	.st0{fill:#27469B;}
	.st1{font-family:'ChaparralPro-Bold';}
	.st2{font-size:33.4823px;}
	.st3{fill:#C7CFE2;}
	.st4{fill:#707487;}
	.st5{fill:#5B5D6E;}
	.st6{fill:#FF6464;}
	.st7{fill:#8F96AC;}
	.st8{fill:#D7DEED;}
	.st9{fill:#D1D4D1;}
	.st10{fill:#556080;}
	.st11{fill:#434F6D;}
	.st12{fill:#D8625E;}
	.st13{fill:#B75030;}
	.st14{fill:#0E2D5E;}
	.st15{fill:#257244;}
</style>
<g>
	<text transform="matrix(0.9354 0 0 1 1.220703e-04 107.6411)" class="st0 st1 st2">LIDÉCO</text>
	<g>
		<g>
			<path class="st3" d="M58,29.7l-19.1,6c-0.5,0.2-1.1-0.2-1.2-0.7L28.9,7.4c-0.2-0.6,0-1.2,0.5-1.3l19.1-6c0.5-0.2,1.1,0.2,1.2,0.7
				l8.7,27.6C58.7,29,58.5,29.6,58,29.7z"/>
			<path class="st4" d="M52.7,10l-20.9,6.6l-2.9-9.2c-0.2-0.6,0-1.2,0.5-1.3l19.1-6c0.5-0.2,1.1,0.2,1.2,0.7L52.7,10L52.7,10z"/>
			<g>
				<path class="st5" d="M37.5,20.4L35.7,21c-0.3,0.1-0.5-0.1-0.6-0.4l-0.6-2c-0.1-0.3,0-0.6,0.3-0.7l1.8-0.6
					c0.3-0.1,0.5,0.1,0.6,0.4l0.6,2C37.9,20.1,37.7,20.3,37.5,20.4z"/>
				<path class="st5" d="M40.1,28.6l-1.8,0.6c-0.3,0.1-0.5-0.1-0.6-0.4l-0.6-2c-0.1-0.3,0-0.6,0.3-0.7l1.8-0.6
					c0.3-0.1,0.5,0.1,0.6,0.4l0.6,2C40.5,28.2,40.3,28.5,40.1,28.6z"/>
				<path class="st5" d="M38.8,24.5L37,25.1c-0.3,0.1-0.5-0.1-0.6-0.4l-0.6-2c-0.1-0.3,0-0.6,0.3-0.7l1.8-0.6
					c0.3-0.1,0.5,0.1,0.6,0.4l0.6,2C39.2,24.1,39,24.4,38.8,24.5z"/>
			</g>
			<path class="st6" d="M41.4,32.7l-1.8,0.6c-0.3,0.1-0.5-0.1-0.6-0.4l-0.6-2c-0.1-0.3,0-0.6,0.3-0.7l1.8-0.6
				c0.3-0.1,0.5,0.1,0.6,0.4l0.6,2C41.7,32.3,41.6,32.6,41.4,32.7z"/>
			<g>
				<path class="st7" d="M41.1,19.3l-1.8,0.6c-0.3,0.1-0.5-0.1-0.6-0.4l-0.6-2c-0.1-0.3,0-0.6,0.3-0.7l1.8-0.6
					c0.3-0.1,0.5,0.1,0.6,0.4l0.6,2C41.5,18.9,41.4,19.2,41.1,19.3z"/>
				<path class="st7" d="M43.7,27.5L41.9,28c-0.3,0.1-0.5-0.1-0.6-0.4l-0.6-2c-0.1-0.3,0-0.6,0.3-0.7l1.8-0.6
					c0.3-0.1,0.5,0.1,0.6,0.4l0.6,2C44.1,27.1,44,27.4,43.7,27.5z"/>
				<path class="st7" d="M42.4,23.4L40.6,24c-0.3,0.1-0.5-0.1-0.6-0.4l-0.6-2c-0.1-0.3,0-0.6,0.3-0.7l1.8-0.6
					c0.3-0.1,0.5,0.1,0.6,0.4l0.6,2C42.8,23,42.7,23.3,42.4,23.4z"/>
				<path class="st7" d="M45,31.6l-1.8,0.6c-0.3,0.1-0.5-0.1-0.6-0.4l-0.6-2c-0.1-0.3,0-0.6,0.3-0.7l1.8-0.6
					c0.3-0.1,0.5,0.1,0.6,0.4l0.6,2C45.4,31.2,45.3,31.5,45,31.6z"/>
				<path class="st7" d="M44.8,18.1L43,18.7c-0.3,0.1-0.5-0.1-0.6-0.4l-0.6-2c-0.1-0.3,0-0.6,0.3-0.7l1.8-0.6
					c0.3-0.1,0.5,0.1,0.6,0.4l0.6,2C45.2,17.7,45,18,44.8,18.1z"/>
				<path class="st7" d="M47.4,26.3l-1.8,0.6c-0.3,0.1-0.5-0.1-0.6-0.4l-0.6-2c-0.1-0.3,0-0.6,0.3-0.7l1.8-0.6
					c0.3-0.1,0.5,0.1,0.6,0.4l0.6,2C47.7,25.9,47.6,26.2,47.4,26.3z"/>
				<path class="st7" d="M46.1,22.2l-1.8,0.6c-0.3,0.1-0.5-0.1-0.6-0.4l-0.6-2c-0.1-0.3,0-0.6,0.3-0.7l1.8-0.6
					c0.3-0.1,0.5,0.1,0.6,0.4l0.6,2C46.5,21.8,46.3,22.1,46.1,22.2z"/>
				<path class="st7" d="M48.7,30.4L46.8,31c-0.3,0.1-0.5-0.1-0.6-0.4l-0.6-2c-0.1-0.3,0-0.6,0.3-0.7l1.8-0.6
					c0.3-0.1,0.5,0.1,0.6,0.4l0.6,2C49,30,48.9,30.3,48.7,30.4z"/>
				<path class="st7" d="M48.4,17l-1.8,0.6c-0.3,0.1-0.5-0.1-0.6-0.4l-0.6-2c-0.1-0.3,0-0.6,0.3-0.7l1.8-0.6
					c0.3-0.1,0.5,0.1,0.6,0.4l0.6,2C48.8,16.6,48.7,16.9,48.4,17z"/>
				<path class="st7" d="M51,25.2l-1.8,0.6c-0.3,0.1-0.5-0.1-0.6-0.4l-0.6-2c-0.1-0.3,0-0.6,0.3-0.7l1.8-0.6
					c0.3-0.1,0.5,0.1,0.6,0.4l0.6,2C51.4,24.8,51.3,25.1,51,25.2z"/>
				<path class="st7" d="M49.7,21.1l-1.8,0.6c-0.3,0.1-0.5-0.1-0.6-0.4l-0.6-2c-0.1-0.3,0-0.6,0.3-0.7l1.8-0.6
					c0.3-0.1,0.5,0.1,0.6,0.4l0.6,2C50.1,20.7,50,21,49.7,21.1z"/>
			</g>
			<g>
				<path class="st5" d="M52.3,29.2l-1.8,0.6c-0.3,0.1-0.5-0.1-0.6-0.4l-0.6-2c-0.1-0.3,0-0.6,0.3-0.7l1.8-0.6
					c0.3-0.1,0.5,0.1,0.6,0.4l0.6,2C52.7,28.9,52.6,29.2,52.3,29.2z"/>
				<path class="st5" d="M52.1,15.8l-1.8,0.6c-0.3,0.1-0.5-0.1-0.6-0.4l-0.6-2c-0.1-0.3,0-0.6,0.3-0.7l1.8-0.6
					c0.3-0.1,0.5,0.1,0.6,0.4l0.6,2C52.5,15.4,52.3,15.7,52.1,15.8z"/>
				<path class="st5" d="M53.4,19.9l-1.8,0.6c-0.3,0.1-0.5-0.1-0.6-0.4l-0.6-2c-0.1-0.3,0-0.6,0.3-0.7l1.8-0.6
					c0.3-0.1,0.5,0.1,0.6,0.4l0.6,2C53.7,19.5,53.6,19.8,53.4,19.9z"/>
				<path class="st5" d="M55.9,28.1l-1.8,0.6c-0.3,0.1-0.5-0.1-0.6-0.4l-1.9-6.1c-0.1-0.3,0-0.6,0.3-0.7l1.8-0.6
					c0.3-0.1,0.5,0.1,0.6,0.4l1.9,6.1C56.3,27.7,56.2,28,55.9,28.1z"/>
			</g>
			<path class="st8" d="M49.5,7.6l-16.4,5.2c-0.3,0.1-0.5-0.1-0.6-0.4l-1.3-4c-0.1-0.3,0-0.6,0.3-0.7l16.4-5.2
				c0.3-0.1,0.5,0.1,0.6,0.4L49.8,7C49.9,7.3,49.7,7.6,49.5,7.6z"/>
			<g>
				<path class="st3" d="M34.6,11.2l-0.9,0.3c-0.3,0.1-0.5-0.1-0.6-0.4l-0.6-2c-0.1-0.3,0-0.6,0.3-0.7l0.9-0.3
					C34,8,34.2,8.2,34.3,8.5l0.6,2C35,10.8,34.8,11.1,34.6,11.2z"/>
				<path class="st3" d="M37.3,10.4l-0.9,0.3c-0.3,0.1-0.5-0.1-0.6-0.4l-0.6-2c-0.1-0.3,0-0.6,0.3-0.7l0.9-0.3
					c0.3-0.1,0.5,0.1,0.6,0.4l0.6,2C37.7,10,37.6,10.3,37.3,10.4z"/>
				<path class="st3" d="M40,9.5l-0.9,0.3c-0.3,0.1-0.5-0.1-0.6-0.4l-0.6-2c-0.1-0.3,0-0.6,0.3-0.7l0.9-0.3c0.3-0.1,0.5,0.1,0.6,0.4
					l0.6,2C40.4,9.1,40.3,9.4,40,9.5z"/>
				<path class="st3" d="M42.8,8.6l-0.9,0.3c-0.3,0.1-0.5-0.1-0.6-0.4l-0.6-2c-0.1-0.3,0-0.6,0.3-0.7l0.8-0.2
					c0.3-0.1,0.5,0.1,0.6,0.4L43,8C43.2,8.3,43,8.5,42.8,8.6z"/>
			</g>
			<g>
				<path class="st7" d="M45.5,7.8l-0.9,0.3C44.3,8.2,44.1,8,44,7.7l-0.6-2c-0.1-0.3,0-0.6,0.3-0.7l0.9-0.3c0.3-0.1,0.5,0.1,0.6,0.4
					l0.6,2C45.9,7.4,45.8,7.7,45.5,7.8z"/>
				<path class="st7" d="M48.2,6.9l-0.9,0.3c-0.3,0.1-0.5-0.1-0.6-0.4l-0.6-2c-0.1-0.3,0-0.6,0.3-0.7l0.9-0.3
					c0.3-0.1,0.5,0.1,0.6,0.4l0.6,2C48.6,6.5,48.5,6.8,48.2,6.9z"/>
			</g>
			<rect x="31" y="11.6" transform="matrix(0.9535 -0.3013 0.3013 0.9535 -1.7985 13.2348)" class="st5" width="22" height="1.6"/>
		</g>
		<g>
			<g>
				<rect x="32.8" y="33.7" class="st9" width="48" height="24"/>
				<path class="st10" d="M81.8,58.7h-50v-26h50V58.7z M33.8,56.7h46v-22h-46V56.7z"/>
			</g>
			<path class="st10" d="M32.8,25.7h-5c-0.6,0-1-0.4-1-1s0.4-1,1-1h5c0.6,0,1,0.4,1,1S33.4,25.7,32.8,25.7z"/>
			<path class="st10" d="M32.8,34.7c-0.6,0-1-0.4-1-1v-9c0-0.6,0.4-1,1-1s1,0.4,1,1v9C33.8,34.3,33.4,34.7,32.8,34.7z"/>
			<path class="st10" d="M32.8,65.7c-0.6,0-1-0.4-1-1v-7c0-0.6,0.4-1,1-1s1,0.4,1,1v7C33.8,65.3,33.4,65.7,32.8,65.7z"/>
			<circle class="st11" cx="42.8" cy="69.7" r="4"/>
			<circle class="st11" cx="66.8" cy="69.7" r="4"/>
			<path class="st10" d="M75.8,65.7h-43c-0.6,0-1-0.4-1-1s0.4-1,1-1h43c0.6,0,1,0.4,1,1S76.4,65.7,75.8,65.7z"/>
			<path class="st12" d="M80.8,42.7h-48c-0.6,0-1-0.4-1-1s0.4-1,1-1h48c0.6,0,1,0.4,1,1S81.4,42.7,80.8,42.7z"/>
			<path class="st10" d="M80.8,50.7h-48c-0.6,0-1-0.4-1-1s0.4-1,1-1h48c0.6,0,1,0.4,1,1S81.4,50.7,80.8,50.7z"/>
			<path class="st10" d="M40.8,58.7c-0.6,0-1-0.4-1-1v-24c0-0.6,0.4-1,1-1s1,0.4,1,1v24C41.8,58.3,41.4,58.7,40.8,58.7z"/>
			<path class="st10" d="M48.8,58.7c-0.6,0-1-0.4-1-1v-24c0-0.6,0.4-1,1-1s1,0.4,1,1v24C49.8,58.3,49.4,58.7,48.8,58.7z"/>
			<path class="st10" d="M56.8,58.7c-0.6,0-1-0.4-1-1v-24c0-0.6,0.4-1,1-1s1,0.4,1,1v24C57.8,58.3,57.4,58.7,56.8,58.7z"/>
			<path class="st10" d="M64.8,58.7c-0.6,0-1-0.4-1-1v-24c0-0.6,0.4-1,1-1s1,0.4,1,1v24C65.8,58.3,65.4,58.7,64.8,58.7z"/>
			<path class="st10" d="M72.8,58.7c-0.6,0-1-0.4-1-1v-24c0-0.6,0.4-1,1-1s1,0.4,1,1v24C73.8,58.3,73.4,58.7,72.8,58.7z"/>
			<circle class="st0" cx="26.8" cy="24.7" r="3"/>
			<rect x="43.8" y="24.7" class="st13" width="14" height="8"/>
			<rect x="51.8" y="22.3" class="st14" width="16" height="10.4"/>
			<rect x="67.8" y="24.1" class="st15" width="10" height="8.6"/>
		</g>
	</g>
</g>
</svg>
